<svg width="15" height="14" viewBox="0 0 15 14" fill="none" xmlns="http://www.w3.org/2000/svg">
    <g clip-path="url(#clip0_1_12)">
        <path d="M7.50002 13.5107C7.28865 13.5107 7.08411 13.4832 6.91365 13.4214C4.30911 12.5207 0.170471 9.32387 0.170471 4.60075C0.170471 2.1945 2.10002 0.241996 4.47274 0.241996C5.62502 0.241996 6.70229 0.695746 7.50002 1.507C7.89604 1.10403 8.36769 0.784626 8.88745 0.567435C9.40722 0.350244 9.96467 0.239612 10.5273 0.241996C12.9 0.241996 14.8296 2.20137 14.8296 4.60075C14.8296 9.33075 10.6909 12.5207 8.08638 13.4214C7.91593 13.4832 7.71138 13.5107 7.50002 13.5107ZM4.47274 1.27325C2.66593 1.27325 1.1932 2.76512 1.1932 4.60075C1.1932 9.29637 5.67274 11.9089 7.24774 12.452C7.37047 12.4932 7.63638 12.4932 7.75911 12.452C9.32729 11.9089 13.8137 9.30325 13.8137 4.60075C13.8137 2.76512 12.3409 1.27325 10.5341 1.27325C9.49775 1.27325 8.53638 1.76137 7.91593 2.607C7.72502 2.86825 7.28865 2.86825 7.09774 2.607C6.79477 2.19249 6.39925 1.85574 5.94321 1.62403C5.48716 1.39232 4.98341 1.27215 4.47274 1.27325Z" fill="black"/>
    </g>
    <defs>
        <clipPath id="clip0_1_12">
            <rect width="15" height="13.75" fill="white"/>
        </clipPath>
    </defs>
</svg>
